<svg width="40" height="40" viewBox="0 0 40 40" fill="none" xmlns="http://www.w3.org/2000/svg">
<g clip-path="url(#clip0)">
<path d="M26.7107 18.2481L16.5541 12.4666C16.0707 12.1913 15.477 12.1941 14.9958 12.4737C14.5147 12.7535 14.2186 13.2681 14.2186 13.8246V25.3875C14.2186 25.944 14.5147 26.4585 14.9958 26.7383C15.477 27.018 16.0706 27.0208 16.5541 26.7454L26.7107 20.964C27.7573 20.3797 27.757 18.8321 26.7107 18.2481ZM17.3437 22.7001V16.512L22.7791 19.6061L17.3437 22.7001ZM39.3996 11.3048C38.8915 7.71732 36.0162 4.96503 32.4072 4.61174C29.5564 4.33267 25.0897 4 20 4C14.9104 4 10.4437 4.33267 7.59286 4.61174C3.98383 4.96496 1.1085 7.71732 0.600431 11.3047C-0.200144 16.9869 -0.200144 22.2642 0.600431 27.9463C1.1085 31.5338 3.98383 34.2861 7.59286 34.6394C10.4437 34.9184 14.9104 35.2511 20 35.2511C25.0897 35.2511 29.5563 34.9184 32.4072 34.6394C36.0162 34.2861 38.8915 31.5338 39.3996 27.9464C40.2002 22.2642 40.2002 16.9869 39.3996 11.3048V11.3048ZM36.3053 27.5082C36.0001 29.6633 34.272 31.3167 32.1027 31.5291C29.3211 31.8014 24.9635 32.1261 20 32.1261C15.0366 32.1261 10.6789 31.8015 7.89733 31.5291C5.72803 31.3167 3.99993 29.6633 3.69476 27.5082C3.31631 24.836 3.12443 22.1839 3.12443 19.6255C3.12443 17.0672 3.31631 14.4152 3.69476 11.7429C3.99993 9.58777 5.72803 7.93436 7.89733 7.72201C10.679 7.44965 15.0366 7.12503 20 7.12503C24.9635 7.12503 29.3211 7.44957 32.1027 7.72201C34.272 7.93436 36.0001 9.58778 36.3053 11.7429C37.0648 17.1351 37.0648 22.116 36.3053 27.5082Z" fill="#2C3C80"/>
</g>
<defs>
<clipPath id="clip0">
<rect width="40" height="40" fill="white"/>
</clipPath>
</defs>
</svg>
