<svg width="114" height="35" viewBox="0 0 114 35" fill="none" xmlns="http://www.w3.org/2000/svg">
<g clip-path="url(#clip0_524_1322)">
<path d="M3.92154 0.5H110.402C112.093 0.5 113.499 1.93694 113.499 3.75518V30.3474C113.499 32.1656 112.093 33.6026 110.402 33.6026H3.92154C2.23096 33.6026 0.824219 32.1656 0.824219 30.3474V3.75518C0.824219 1.93694 2.23096 0.5 3.92154 0.5Z" stroke="white"/>
<path d="M43.079 18.4704H39.1598L38.2004 21.0921H36.4775L40.3153 11.3008H41.9433L45.8696 21.0892H44.059L43.079 18.4704ZM39.6535 17.1392H42.5793L41.5313 14.3349C41.3874 13.9475 41.2459 13.5196 41.1067 13.0512C40.9804 13.4655 40.8431 13.8889 40.6947 14.3214L39.6535 17.1392Z" fill="white"/>
<path d="M46.6456 15.5801C46.6456 15.0393 46.6278 14.4446 46.5918 13.796H48.1594C48.2182 14.1021 48.2588 14.4113 48.2811 14.7223C48.5541 14.3948 48.8947 14.1304 49.2796 13.9471C49.6645 13.7638 50.0845 13.666 50.5107 13.6605C51.011 13.6525 51.5023 13.7939 51.9217 14.0666C52.3412 14.3392 52.6698 14.7307 52.8657 15.1912C53.1415 15.8268 53.272 16.516 53.2476 17.2084C53.2681 17.9596 53.1191 18.7056 52.8111 19.391C52.5514 19.9602 52.1265 20.4383 51.5915 20.7629C51.042 21.0806 50.4157 21.2419 49.7809 21.2289C49.2816 21.2281 48.786 21.1435 48.3146 20.9787V23.9923L46.6456 24.1338V15.5801ZM51.0342 19.3064C51.4129 18.7098 51.5918 18.008 51.5444 17.303C51.5444 16.4875 51.4037 15.8963 51.1223 15.5291C50.9933 15.3531 50.8235 15.2111 50.6276 15.1152C50.4316 15.0194 50.2153 14.9725 49.9972 14.9788C49.6828 14.9761 49.373 15.0551 49.0983 15.2082C48.8082 15.3734 48.5441 15.5806 48.3146 15.8232V19.729C48.4998 19.8165 48.6948 19.8811 48.8955 19.9215C49.1109 19.9682 49.3308 19.9919 49.5512 19.9923C49.8357 20.0087 50.1199 19.9549 50.3786 19.8353C50.6373 19.7159 50.8627 19.5345 51.0345 19.3071L51.0342 19.3064Z" fill="white"/>
<path d="M54.3185 15.5801C54.3185 15.0393 54.3005 14.4446 54.2646 13.796H55.8321C55.8911 14.1021 55.9316 14.4113 55.9538 14.7223C56.2269 14.3948 56.5675 14.1304 56.9524 13.9471C57.3373 13.7639 57.7572 13.6661 58.1836 13.6605C58.6837 13.6525 59.175 13.7939 59.5944 14.0666C60.014 14.3392 60.3427 14.7307 60.5385 15.1912C60.8142 15.8268 60.9447 16.516 60.9204 17.2084C60.941 17.9596 60.7918 18.7056 60.484 19.391C60.2244 19.9602 59.7996 20.4383 59.2648 20.7629C58.715 21.0807 58.0886 21.2419 57.4537 21.2289C56.9544 21.2281 56.4589 21.1435 55.9875 20.9787V23.9923L54.3185 24.1338V15.5801ZM58.7069 19.3064C59.0858 18.7098 59.2645 18.008 59.2173 17.303C59.2173 16.4875 59.0764 15.8963 58.7947 15.5291C58.6658 15.3531 58.4961 15.2111 58.3001 15.1152C58.1041 15.0194 57.8877 14.9725 57.6696 14.9788C57.3553 14.9761 57.0457 15.0551 56.7711 15.2082C56.4809 15.3734 56.2168 15.5806 55.9875 15.8232V19.729C56.1725 19.8165 56.3676 19.8811 56.5682 19.9215C56.7838 19.9682 57.0036 19.9919 57.2241 19.9923C57.5086 20.0087 57.7928 19.9549 58.0515 19.8353C58.3102 19.7159 58.5354 19.5345 58.7073 19.3071L58.7069 19.3064Z" fill="white"/>
<path d="M64.0681 20.6216C63.3542 20.2308 62.7745 19.6341 62.4047 18.909C62.0002 18.0905 61.8009 17.186 61.8239 16.2734C61.7937 15.2968 62.0245 14.3299 62.4924 13.4722C62.9142 12.7276 63.5482 12.1254 64.3137 11.7427C65.1173 11.3493 66.0026 11.1513 66.8971 11.1647C67.4398 11.1623 67.9808 11.2247 68.5086 11.3505C69.0021 11.4681 69.4815 11.6391 69.938 11.8605L69.5134 13.1445C68.7246 12.7454 67.8563 12.5284 66.9725 12.5096C66.3488 12.4954 65.7323 12.6457 65.185 12.9452C64.6675 13.2422 64.2518 13.6885 63.9922 14.2257C63.6928 14.8633 63.5473 15.5623 63.5676 16.2664C63.5562 16.9011 63.6676 17.5319 63.8957 18.1245C64.1006 18.6482 64.4615 19.0965 64.9294 19.4084C65.462 19.741 66.0823 19.9059 66.7096 19.8816C67.0357 19.8816 67.3613 19.8545 67.6829 19.8005C67.9936 19.7503 68.2989 19.6712 68.5949 19.5641V17.5843H66.3316V16.2873H70.2169V20.4093C69.6533 20.6722 69.0632 20.874 68.4565 21.011C67.8547 21.149 67.2393 21.2192 66.6219 21.22C65.7335 21.2423 64.8541 21.0363 64.0681 20.6216Z" fill="white"/>
<path d="M76.23 21.0899C76.1672 20.7713 76.129 20.4483 76.1153 20.1238C75.8359 20.4474 75.4947 20.712 75.1116 20.9024C74.6795 21.1211 74.2008 21.2312 73.7166 21.2233C73.3209 21.228 72.9294 21.1433 72.5709 20.9756C72.2299 20.8143 71.9441 20.5557 71.7499 20.2324C71.5375 19.8643 71.4322 19.4442 71.4458 19.0195C71.4336 18.6975 71.4963 18.3771 71.6289 18.0834C71.7612 17.7897 71.9601 17.5307 72.2096 17.3268C72.7186 16.9056 73.568 16.695 74.7578 16.695C75.2009 16.6948 75.6435 16.7266 76.0821 16.7899V16.6483C76.0821 16.0041 75.9446 15.5503 75.6698 15.2868C75.3432 15.0047 74.9184 14.8626 74.4877 14.8914C74.1019 14.8956 73.7183 14.948 73.3456 15.0473C72.9789 15.1373 72.6213 15.2616 72.278 15.4188L72.0142 14.2024C72.3934 14.0409 72.7872 13.9165 73.1902 13.8308C73.6959 13.716 74.2127 13.6592 74.7312 13.6616C75.2812 13.6468 75.8282 13.7446 76.339 13.949C76.7878 14.1475 77.1535 14.4963 77.3728 14.9353C77.6466 15.5237 77.7742 16.1693 77.7447 16.8174V19.7164C77.7447 20.0182 77.7627 20.4755 77.7986 21.0882L76.23 21.0899ZM75.2299 19.7383C75.5524 19.5899 75.8419 19.3784 76.0813 19.1165V17.7652C75.7112 17.7211 75.339 17.6963 74.9662 17.691C74.2771 17.691 73.8006 17.8024 73.5372 18.025C73.4069 18.1353 73.3036 18.274 73.2351 18.4303C73.1666 18.5867 73.1347 18.7567 73.1417 18.9272C73.1298 19.0734 73.1491 19.2206 73.1987 19.3587C73.2482 19.4968 73.3267 19.6227 73.4288 19.7281C73.6461 19.9102 73.9242 20.0032 74.2074 19.9882C74.5631 19.9836 74.9132 19.8982 75.2309 19.7383H75.2299Z" fill="white"/>
<path d="M79.207 19.3364V10.7211L80.8704 10.5859V19.0391C80.849 19.2702 80.9048 19.5019 81.0293 19.6977C81.093 19.7661 81.1716 19.8189 81.2588 19.8523C81.3461 19.8855 81.4398 19.8986 81.5329 19.8903C81.6817 19.8831 81.8292 19.8582 81.9721 19.816L82.1685 21.0122C81.9817 21.083 81.788 21.1341 81.5906 21.1644C81.3775 21.2013 81.1617 21.2204 80.9454 21.2217C79.7862 21.2217 79.2067 20.5933 79.207 19.3364Z" fill="white"/>
<path d="M83.3604 19.3364V10.7211L85.0237 10.5859V19.0391C85.0023 19.2702 85.0581 19.5019 85.1826 19.6977C85.2465 19.7661 85.3249 19.8187 85.4123 19.8521C85.4995 19.8855 85.5931 19.8986 85.6862 19.8903C85.835 19.8831 85.9825 19.8582 86.1255 19.816L86.3219 21.0122C86.135 21.083 85.9414 21.1341 85.7439 21.1644C85.5308 21.2013 85.315 21.2204 85.0987 21.2217C83.9395 21.2217 83.3601 20.5933 83.3604 19.3364Z" fill="white"/>
<path d="M93.2404 17.6556H88.4701C88.5468 19.1826 89.2743 19.9463 90.6527 19.9465C91.0067 19.9452 91.3593 19.9032 91.7038 19.8216C92.0563 19.7402 92.4011 19.6283 92.7344 19.4871L93.0989 20.6292C92.2397 21.0352 91.2988 21.2387 90.3486 21.2237C89.6687 21.2458 88.9945 21.0947 88.389 20.7846C87.8661 20.5004 87.4462 20.0582 87.1896 19.5211C86.9063 18.898 86.7689 18.2185 86.7879 17.5342C86.7687 16.8173 86.9139 16.1053 87.2126 15.4532C87.4689 14.903 87.8813 14.4401 88.3986 14.1222C88.929 13.8091 89.5361 13.6497 90.1519 13.6621C90.7636 13.6399 91.3673 13.8089 91.8786 14.1455C92.3382 14.466 92.6948 14.9132 92.9049 15.4328C93.1331 15.997 93.2468 16.601 93.239 17.2097L93.2404 17.6556ZM91.6124 16.5938C91.6194 16.1207 91.4644 15.6593 91.1733 15.2861C91.0412 15.1414 90.879 15.0271 90.6981 14.9519C90.5171 14.8766 90.3219 14.8421 90.126 14.8506C89.9288 14.8454 89.7326 14.882 89.5503 14.9576C89.3681 15.0333 89.2038 15.1464 89.0681 15.2897C88.754 15.657 88.5615 16.1127 88.5175 16.5938H91.6124Z" fill="white"/>
<path d="M94.586 15.6269C94.586 15.2259 94.5681 14.6153 94.5322 13.7954H96.093C96.1202 13.9982 96.1457 14.2403 96.1709 14.5219C96.1959 14.8037 96.2126 15.0323 96.2214 15.2079C96.3896 14.9238 96.5805 14.6539 96.7924 14.4006C96.9767 14.1843 97.1989 14.0034 97.4481 13.8669C97.7105 13.7262 98.0048 13.6552 98.3025 13.6606C98.526 13.6563 98.749 13.6836 98.965 13.7416L98.7555 15.1877C98.5799 15.1365 98.3976 15.1116 98.2147 15.1138C97.8498 15.106 97.4914 15.2112 97.1883 15.4147C96.8226 15.6905 96.5053 16.0255 96.2494 16.4055V21.0878H94.586V15.6269Z" fill="white"/>
<path d="M99.9649 24.0714C99.761 24.0383 99.5598 23.9896 99.3633 23.9259L99.6673 22.7099C99.7794 22.7414 99.9217 22.7714 100.092 22.8011C100.253 22.8294 100.415 22.8441 100.578 22.845C101.317 22.845 101.871 22.3697 102.242 21.4191L102.348 21.1491L99.6581 13.7969H101.449L102.8 17.9054C102.976 18.4344 103.117 18.9737 103.225 19.5203C103.351 18.9933 103.5 18.4662 103.671 17.9391L105.043 13.7983H106.725L104.043 21.1842C103.841 21.7789 103.567 22.3462 103.225 22.8733C102.964 23.2723 102.608 23.5998 102.188 23.826C101.739 24.0446 101.244 24.1514 100.745 24.1371C100.483 24.1379 100.223 24.1157 99.9649 24.0714Z" fill="white"/>
<path fill-rule="evenodd" clip-rule="evenodd" d="M8.13184 12.5522C8.13184 8.11202 9.75594 6.48828 14.1957 6.48828H23.6213C28.0611 6.48828 29.6852 8.11202 29.6852 12.5522V21.9777C29.6852 26.4175 28.0572 28.0416 23.618 28.0416H14.1957C9.75594 28.0416 8.13184 26.4175 8.13184 21.9777V12.5522ZM16.3728 12.6269C17.0454 13.2995 17.9574 13.6778 18.9085 13.6788C19.8596 13.6778 20.7716 13.2995 21.4442 12.6269C22.1167 11.9543 22.495 11.0424 22.4962 10.0912H21.9894C21.9894 10.9083 21.6648 11.6919 21.087 12.2697C20.5092 12.8474 19.7255 13.172 18.9085 13.172C18.0915 13.172 17.3078 12.8474 16.7301 12.2697C16.1522 11.6919 15.8277 10.9083 15.8277 10.0912H15.3208C15.322 11.0424 15.7003 11.9543 16.3728 12.6269ZM22.2282 19.2039L21.5884 17.2658H21.1216L20.4817 19.2039L19.859 17.2672H19.2511L20.2332 20.0841H20.7064L21.3473 18.2338L21.9879 20.0841H22.4654L23.445 17.2672H22.8522L22.2282 19.2039ZM25.5097 18.8712H24.4699L24.4714 19.5688H26.0332V20.0819H23.905V17.2677H25.9808V17.7811H24.4714V18.3579H25.5097V18.8712ZM26.7155 20.0805H27.2796V17.2662H26.7155V20.0805ZM17.0657 20.0826L17.3222 19.4958H18.6116L18.8646 20.0826H19.4645L18.2279 17.2662H17.7232L16.482 20.0826H17.0657ZM17.5346 18.9876H18.3988L17.9653 17.9793L17.5346 18.9876ZM15.6207 18.8793C15.6207 19.3373 15.393 19.5822 14.9801 19.5822C14.5671 19.5822 14.336 19.3305 14.336 18.8598V17.2672H13.764V18.8787C13.764 19.671 14.2044 20.1258 14.9723 20.1258C15.7473 20.1258 16.1922 19.6629 16.1922 18.8552V17.2655H15.6207V18.8793ZM12.9716 17.2662H12.4V18.4025H11.109V17.2658H10.537V20.0836H11.109V18.9395H12.4V20.0841H12.9716V17.2662Z" fill="white"/>
</g>
<defs>
<clipPath id="clip0_524_1322">
<rect width="113.675" height="34.1026" fill="white" transform="translate(0.324219)"/>
</clipPath>
</defs>
</svg>
