<svg width="114" height="35" viewBox="0 0 114 35" fill="none" xmlns="http://www.w3.org/2000/svg">
<g clip-path="url(#clip0_524_1335)">
<path d="M3.7604 0.5H110.241C111.932 0.5 113.338 1.93694 113.338 3.75518V30.3474C113.338 32.1656 111.932 33.6026 110.241 33.6026H3.7604C2.06982 33.6026 0.663086 32.1656 0.663086 30.3474V3.75518C0.663086 1.93694 2.06982 0.5 3.7604 0.5Z" stroke="white"/>
<path d="M26.8524 16.976C26.8288 14.3574 28.9964 13.0835 29.0956 13.0242C27.8679 11.2343 25.9652 10.9898 25.2965 10.9703C23.6985 10.8021 22.1483 11.9265 21.3342 11.9265C20.5039 11.9265 19.2503 10.9865 17.8991 11.0141C16.1605 11.041 14.5339 12.0476 13.6419 13.6107C11.8008 16.798 13.1739 21.4818 14.9377 24.0581C15.82 25.3199 16.851 26.7286 18.2006 26.6791C19.5208 26.6247 20.0139 25.8373 21.6071 25.8373C23.1858 25.8373 23.6488 26.6791 25.0251 26.6474C26.4421 26.6247 27.3342 25.38 28.1856 24.1069C29.2052 22.6607 29.6147 21.2365 29.631 21.1634C29.5976 21.1519 26.8792 20.1144 26.8524 16.976Z" fill="white"/>
<path d="M24.2534 9.27526C24.9633 8.38724 25.4493 7.17912 25.3144 5.95312C24.2866 5.99862 23.0013 6.66403 22.2612 7.53253C21.6063 8.29787 21.0214 9.5523 21.1725 10.732C22.3269 10.8181 23.5123 10.1495 24.2534 9.27526Z" fill="white"/>
<path d="M45.9579 21.6052H44.1129L43.1022 18.4292H39.5891L38.6263 21.6052H36.8301L40.3106 10.793H42.4603L45.9579 21.6052ZM42.7975 17.0969L41.8834 14.2735C41.7867 13.9851 41.6056 13.3059 41.3384 12.2367H41.3059C41.1994 12.6966 41.028 13.3758 40.7923 14.2735L39.8946 17.0969H42.7975Z" fill="white"/>
<path d="M54.9083 17.6108C54.9083 18.9366 54.55 19.9848 53.8334 20.7541C53.1915 21.4391 52.3945 21.7811 51.4431 21.7811C50.4161 21.7811 49.6785 21.4123 49.2291 20.6746H49.1966V24.7816H47.4646V16.3751C47.4646 15.5415 47.4426 14.6859 47.4004 13.8085H48.9236L49.0203 15.0442H49.0529C49.6306 14.1132 50.5072 13.6484 51.6836 13.6484C52.6033 13.6484 53.3711 14.0116 53.9852 14.7387C54.6011 15.4667 54.9083 16.4238 54.9083 17.6108ZM53.1436 17.6741C53.1436 16.9154 52.9729 16.2897 52.6302 15.7973C52.2556 15.2839 51.7527 15.0272 51.1222 15.0272C50.6948 15.0272 50.3064 15.1701 49.9595 15.4521C49.6119 15.7365 49.3844 16.1077 49.2779 16.5676C49.2242 16.7821 49.1975 16.9575 49.1975 17.0957V18.3956C49.1975 18.9627 49.3713 19.4413 49.7191 19.8321C50.0669 20.2229 50.5185 20.4179 51.0743 20.4179C51.7267 20.4179 52.2345 20.1659 52.5977 19.6639C52.9616 19.161 53.1436 18.4981 53.1436 17.6741Z" fill="white"/>
<path d="M63.8753 17.6108C63.8753 18.9366 63.517 19.9848 62.7996 20.7541C62.1585 21.4391 61.3615 21.7811 60.4101 21.7811C59.3833 21.7811 58.6456 21.4123 58.197 20.6746H58.1645V24.7816H56.4323V16.3751C56.4323 15.5415 56.4105 14.6859 56.3682 13.8085H57.8916L57.9882 15.0442H58.0208C58.5976 14.1132 59.4742 13.6484 60.6514 13.6484C61.5703 13.6484 62.3381 14.0116 62.954 14.7387C63.5674 15.4667 63.8753 16.4238 63.8753 17.6108ZM62.1106 17.6741C62.1106 16.9154 61.9393 16.2897 61.5964 15.7973C61.2218 15.2839 60.7205 15.0272 60.0892 15.0272C59.6611 15.0272 59.2735 15.1701 58.9259 15.4521C58.5781 15.7365 58.3514 16.1077 58.245 16.5676C58.1921 16.7821 58.1645 16.9575 58.1645 17.0957V18.3956C58.1645 18.9627 58.3385 19.4413 58.6845 19.8321C59.0322 20.222 59.484 20.4179 60.0413 20.4179C60.6937 20.4179 61.2015 20.1659 61.5647 19.6639C61.9286 19.161 62.1106 18.4981 62.1106 17.6741Z" fill="white"/>
<path d="M73.9019 18.5713C73.9019 19.491 73.5826 20.2393 72.9416 20.817C72.2372 21.4483 71.2566 21.7634 69.9965 21.7634C68.833 21.7634 67.9003 21.5392 67.1943 21.09L67.5957 19.6462C68.3561 20.106 69.1904 20.3368 70.0997 20.3368C70.7521 20.3368 71.2597 20.1889 71.6246 19.8948C71.9877 19.6007 72.169 19.2058 72.169 18.7134C72.169 18.2747 72.0195 17.905 71.7196 17.6053C71.4215 17.3054 70.9235 17.0269 70.228 16.7693C68.335 16.0632 67.3893 15.0291 67.3893 13.669C67.3893 12.7801 67.7207 12.0514 68.3845 11.4843C69.0458 10.9164 69.9282 10.6328 71.0315 10.6328C72.0153 10.6328 72.8328 10.8042 73.4852 11.1463L73.0521 12.5583C72.4427 12.2269 71.7537 12.0611 70.9827 12.0611C70.3734 12.0611 69.8974 12.2114 69.556 12.5104C69.2677 12.7777 69.1231 13.1035 69.1231 13.4894C69.1231 13.9168 69.288 14.2702 69.6195 14.548C69.9079 14.8047 70.4319 15.0826 71.1924 15.3825C72.1227 15.757 72.8059 16.1949 73.2455 16.6969C73.6833 17.1974 73.9019 17.8239 73.9019 18.5713Z" fill="white"/>
<path d="M79.6289 15.1098H77.7196V18.8949C77.7196 19.8576 78.056 20.3387 78.7303 20.3387C79.0398 20.3387 79.2965 20.3119 79.4997 20.2582L79.5476 21.5736C79.2064 21.7012 78.757 21.7654 78.2006 21.7654C77.5164 21.7654 76.9818 21.5566 76.5959 21.1397C76.2117 20.7222 76.0183 20.0218 76.0183 19.0379V15.108H74.8809V13.8081H76.0183V12.3807L77.7196 11.8672V13.8081H79.6289V15.1098Z" fill="white"/>
<path d="M88.2446 17.6416C88.2446 18.84 87.9019 19.8239 87.2178 20.5933C86.5004 21.3854 85.5481 21.7803 84.3611 21.7803C83.2172 21.7803 82.3065 21.4008 81.6273 20.6421C80.948 19.8832 80.6084 18.9253 80.6084 17.7708C80.6084 16.5627 80.9578 15.5732 81.659 14.8038C82.3584 14.0335 83.3025 13.6484 84.4895 13.6484C85.6334 13.6484 86.5539 14.0279 87.2486 14.7875C87.9133 15.5244 88.2446 16.4758 88.2446 17.6416ZM86.4476 17.6978C86.4476 16.9787 86.294 16.362 85.9828 15.8477C85.6196 15.2254 85.1004 14.915 84.4277 14.915C83.7314 14.915 83.2026 15.2263 82.8395 15.8477C82.5282 16.3629 82.3747 16.9892 82.3747 17.7303C82.3747 18.4493 82.5282 19.0659 82.8395 19.5793C83.214 20.2016 83.7372 20.512 84.4123 20.512C85.0737 20.512 85.5928 20.1952 85.9674 19.5632C86.2867 19.0391 86.4476 18.4159 86.4476 17.6978Z" fill="white"/>
<path d="M93.8733 15.3318C93.7019 15.3002 93.519 15.2839 93.3274 15.2839C92.718 15.2839 92.2467 15.5139 91.9152 15.9745C91.6269 16.3807 91.4822 16.8942 91.4822 17.5141V21.6048H89.7509L89.7672 16.2637C89.7672 15.3652 89.7452 14.547 89.7021 13.8093H91.2109L91.2743 15.3009H91.3222C91.505 14.7884 91.7933 14.3756 92.1883 14.066C92.5742 13.7874 92.991 13.6484 93.4402 13.6484C93.6003 13.6484 93.745 13.6598 93.8733 13.6801V15.3318Z" fill="white"/>
<path d="M101.62 17.3368C101.62 17.6472 101.6 17.9088 101.557 18.1225H96.3601C96.3804 18.8926 96.6315 19.4817 97.1141 19.8879C97.552 20.2511 98.1184 20.4331 98.8138 20.4331C99.5832 20.4331 100.285 20.3104 100.916 20.0642L101.188 21.2667C100.45 21.5884 99.5791 21.7484 98.5741 21.7484C97.3652 21.7484 96.4162 21.3926 95.7257 20.6816C95.0367 19.9708 94.6914 19.0162 94.6914 17.8186C94.6914 16.643 95.0123 15.6639 95.6549 14.8832C96.3277 14.0496 97.2369 13.6328 98.3808 13.6328C99.5043 13.6328 100.355 14.0496 100.933 14.8832C101.39 15.5454 101.62 16.3643 101.62 17.3368ZM99.9682 16.8875C99.9796 16.3741 99.8668 15.9304 99.632 15.5559C99.3321 15.0741 98.8715 14.8337 98.2516 14.8337C97.6852 14.8337 97.2246 15.0684 96.8728 15.5396C96.5845 15.9142 96.4129 16.3636 96.3601 16.8867H99.9682V16.8875Z" fill="white"/>
</g>
<defs>
<clipPath id="clip0_524_1335">
<rect width="113.675" height="34.1026" fill="white" transform="translate(0.163086)"/>
</clipPath>
</defs>
</svg>
