<svg width="114" height="35" viewBox="0 0 114 35" fill="none" xmlns="http://www.w3.org/2000/svg">
<g clip-path="url(#clip0_524_1347)">
<path d="M3.59732 0.5H110.078C111.768 0.5 113.175 1.93694 113.175 3.75518V30.3474C113.175 32.1656 111.768 33.6026 110.078 33.6026H3.59732C1.90674 33.6026 0.5 32.1656 0.5 30.3474V3.75518C0.5 1.93694 1.90674 0.5 3.59732 0.5Z" stroke="white"/>
<path d="M56.6157 13.7421C55.8997 13.7454 55.2008 13.9608 54.6071 14.3611C54.0133 14.7613 53.5515 15.3285 53.2798 15.991C53.0082 16.6535 52.9388 17.3816 53.0805 18.0835C53.2223 18.7853 53.5688 19.4295 54.0763 19.9345C54.5838 20.4396 55.2296 20.7831 55.9321 20.9216C56.6346 21.0601 57.3624 20.9872 58.0235 20.7125C58.6847 20.4377 59.2497 19.9732 59.6472 19.3777C60.0447 18.7821 60.2568 18.082 60.2568 17.366C60.2637 16.8867 60.1742 16.411 59.9934 15.9671C59.8127 15.5231 59.5445 15.12 59.2048 14.782C58.865 14.4438 58.4607 14.1775 58.0159 13.9988C57.5711 13.8202 57.095 13.7329 56.6157 13.7421ZM56.6157 19.566C56.1754 19.5968 55.7359 19.4944 55.3546 19.2722C54.9732 19.0499 54.6674 18.7181 54.4772 18.3198C54.2869 17.9215 54.2209 17.4751 54.2875 17.0387C54.3543 16.6024 54.5508 16.1962 54.8514 15.873C55.1522 15.5498 55.5431 15.3245 55.9735 15.2265C56.4039 15.1284 56.8538 15.162 57.2648 15.3231C57.6758 15.4841 58.0289 15.7651 58.2781 16.1294C58.5273 16.4938 58.6611 16.9246 58.6621 17.366C58.676 17.6458 58.6335 17.9253 58.5375 18.1884C58.4414 18.4514 58.2936 18.6926 58.103 18.8976C57.9122 19.1027 57.6824 19.2674 57.427 19.3823C57.1716 19.4971 56.8957 19.5595 56.6157 19.566ZM48.6771 13.7421C47.9607 13.7438 47.261 13.9577 46.6661 14.357C46.0712 14.7563 45.6081 15.3228 45.3351 15.9851C45.0621 16.6474 44.9916 17.3758 45.1323 18.0783C45.2732 18.7806 45.619 19.4256 46.1261 19.9315C46.6333 20.4376 47.2791 20.7819 47.9817 20.9211C48.6845 21.0602 49.4127 20.9878 50.0745 20.7133C50.7361 20.4387 51.3016 19.9742 51.6995 19.3785C52.0973 18.7828 52.3096 18.0825 52.3096 17.366C52.3166 16.8867 52.227 16.411 52.0462 15.9671C51.8655 15.5231 51.5973 15.12 51.2576 14.782C50.9178 14.4438 50.5136 14.1775 50.0687 13.9988C49.624 13.8202 49.1478 13.7329 48.6686 13.7421H48.6771ZM48.6771 19.566C48.2365 19.5985 47.7964 19.4977 47.4139 19.2765C47.0316 19.0555 46.7245 18.7242 46.5329 18.3262C46.3413 17.9282 46.274 17.4817 46.3396 17.0449C46.4054 16.608 46.6011 16.2011 46.9012 15.877C47.2014 15.5528 47.5922 15.3266 48.0229 15.2278C48.4534 15.1289 48.9038 15.162 49.3153 15.3228C49.7267 15.4833 50.0804 15.7642 50.33 16.1287C50.5797 16.493 50.7138 16.9243 50.7151 17.366C50.7288 17.6458 50.6865 17.9253 50.5903 18.1884C50.4942 18.4514 50.3466 18.6926 50.1558 18.8976C49.9651 19.1027 49.7352 19.2674 49.4798 19.3823C49.2244 19.4971 48.9485 19.5595 48.6686 19.566H48.6771ZM39.2207 14.8591V16.3939H42.9043C42.8466 17.1168 42.546 17.799 42.0516 18.3295C41.6831 18.705 41.24 18.9991 40.7511 19.1929C40.262 19.3867 39.7378 19.4761 39.2122 19.4552C38.1266 19.4552 37.0856 19.024 36.3181 18.2563C35.5504 17.4888 35.1193 16.4477 35.1193 15.3622C35.1193 14.2767 35.5504 13.2356 36.3181 12.468C37.0856 11.7005 38.1266 11.2692 39.2122 11.2692C40.2506 11.2523 41.2533 11.6479 42.0005 12.3692L43.0835 11.2863C42.579 10.7756 41.9772 10.3713 41.3137 10.0974C40.6502 9.82346 39.9385 9.68554 39.2207 9.69177C38.4626 9.66225 37.7065 9.78609 36.9974 10.0558C36.2884 10.3256 35.641 10.7357 35.0942 11.2616C34.5476 11.7875 34.1126 12.4183 33.8155 13.1164C33.5183 13.8144 33.3652 14.5652 33.3652 15.3238C33.3652 16.0825 33.5183 16.8332 33.8155 17.5312C34.1126 18.2293 34.5476 18.8602 35.0942 19.386C35.641 19.9119 36.2884 20.322 36.9974 20.5918C37.7065 20.8616 38.4626 20.9854 39.2207 20.9559C39.9506 20.9888 40.679 20.8652 41.357 20.5931C42.0352 20.321 42.647 19.9068 43.1517 19.3784C44.0449 18.3969 44.522 17.1066 44.4818 15.7801C44.4845 15.4569 44.456 15.1341 44.3966 14.8164L39.2207 14.8591ZM77.8564 16.0529C77.6341 15.3986 77.2183 14.8273 76.664 14.4147C76.1097 14.0021 75.4432 13.7675 74.7527 13.7421C74.2862 13.7412 73.8245 13.8359 73.3962 14.0205C72.9678 14.2051 72.5819 14.4756 72.2622 14.8153C71.9426 15.1548 71.6959 15.5564 71.5377 15.9952C71.3792 16.4339 71.3126 16.9005 71.3418 17.366C71.3315 17.8426 71.4172 18.3164 71.5941 18.7591C71.7709 19.2018 72.0352 19.6043 72.3711 19.9426C72.7069 20.2807 73.1075 20.5479 73.549 20.7278C73.9905 20.9078 74.4636 20.997 74.9401 20.99C75.5367 20.9933 76.1247 20.8485 76.6515 20.5687C77.1783 20.2889 77.6273 19.8829 77.9587 19.3869L76.7224 18.5343C76.5378 18.8418 76.2765 19.0963 75.9641 19.2728C75.6517 19.449 75.2989 19.5413 74.9401 19.5404C74.5708 19.5545 74.2059 19.4571 73.8925 19.261C73.5792 19.0648 73.3323 18.7789 73.1836 18.4405L78.0354 16.4366L77.8564 16.0529ZM72.9108 17.2637C72.8936 17 72.929 16.7354 73.0153 16.4856C73.1015 16.2358 73.2367 16.0055 73.413 15.8087C73.5893 15.6117 73.8031 15.452 74.042 15.3387C74.2807 15.2253 74.5397 15.1609 74.8037 15.1491C75.0789 15.131 75.3531 15.194 75.5927 15.3304C75.8321 15.4668 76.0264 15.6707 76.151 15.9165L72.9108 17.2637ZM68.9713 20.7769H70.5658V10.1181H68.9713V20.7769ZM66.3621 14.5521H66.3024C66.0621 14.2835 65.7677 14.0686 65.4385 13.9216C65.1093 13.7747 64.7528 13.699 64.3924 13.6994C63.4605 13.7446 62.5818 14.1466 61.9383 14.822C61.2948 15.4976 60.9358 16.3948 60.9358 17.3276C60.9358 18.2606 61.2948 19.1578 61.9383 19.8332C62.5818 20.5087 63.4605 20.9107 64.3924 20.9559C64.7537 20.9619 65.112 20.8888 65.4419 20.7415C65.772 20.5941 66.0657 20.3763 66.3024 20.1032H66.3535V20.6233C66.3535 22.0132 65.6117 22.7551 64.4179 22.7551C64.0203 22.7458 63.6345 22.6184 63.3096 22.389C62.9845 22.1598 62.7352 21.8389 62.5931 21.4676L61.2033 22.0473C61.4649 22.6837 61.9107 23.2275 62.4835 23.6088C63.0562 23.9901 63.7298 24.1917 64.4179 24.1876C66.2853 24.1876 67.8287 23.0876 67.8287 20.4102V13.9552H66.3621V14.5521ZM64.5373 19.566C63.9873 19.5175 63.4754 19.2647 63.1024 18.8575C62.7296 18.4503 62.5226 17.9182 62.5226 17.366C62.5226 16.8139 62.7296 16.2818 63.1024 15.8746C63.4754 15.4674 63.9873 15.2146 64.5373 15.1661C64.81 15.18 65.0772 15.2485 65.3231 15.3674C65.5688 15.4862 65.7884 15.653 65.9689 15.858C66.1492 16.0631 66.2867 16.3021 66.3733 16.5611C66.4598 16.8201 66.4938 17.0938 66.4729 17.366C66.4962 17.6394 66.4637 17.9148 66.3775 18.1754C66.2913 18.4359 66.1532 18.6763 65.9715 18.8819C65.7897 19.0876 65.5683 19.2542 65.3202 19.3718C65.0723 19.4895 64.8031 19.5555 64.5288 19.566H64.5373ZM85.326 10.1181H81.5145V20.7769H83.1091V16.7351H85.3345C85.7891 16.7677 86.2454 16.7064 86.675 16.5549C87.1047 16.4034 87.4987 16.1651 87.8321 15.8546C88.1656 15.5442 88.4317 15.1684 88.6135 14.7506C88.7954 14.3329 88.8892 13.8822 88.8892 13.4266C88.8892 12.971 88.7954 12.5202 88.6135 12.1025C88.4317 11.6847 88.1656 11.3089 87.8321 10.9985C87.4987 10.6881 87.1047 10.4497 86.675 10.2983C86.2454 10.1468 85.7891 10.0855 85.3345 10.1181H85.326ZM85.326 15.2343H83.1004V11.6018H85.3601C85.8452 11.6018 86.3105 11.7945 86.6534 12.1375C86.9965 12.4805 87.1892 12.9458 87.1892 13.4308C87.1892 13.9159 86.9965 14.3812 86.6534 14.7242C86.3105 15.0672 85.8452 15.2599 85.3601 15.2599L85.326 15.2343ZM95.1576 13.6994C94.5772 13.6647 93.9992 13.8004 93.4947 14.0897C92.9902 14.3791 92.5814 14.8095 92.3182 15.3281L93.7337 15.9165C93.8733 15.6592 94.0845 15.4481 94.3419 15.3088C94.5992 15.1695 94.8916 15.1081 95.1833 15.132C95.3857 15.1084 95.5908 15.1252 95.7866 15.1817C95.9824 15.2382 96.165 15.3331 96.3237 15.4609C96.4825 15.5887 96.6143 15.7468 96.7112 15.926C96.8082 16.1053 96.8685 16.302 96.8887 16.5048V16.6156C96.3766 16.3445 95.8053 16.204 95.2258 16.2064C93.6996 16.2064 92.1562 17.0591 92.1562 18.6025C92.1711 18.9316 92.2522 19.2542 92.394 19.5515C92.5361 19.8488 92.7361 20.1147 92.9826 20.3332C93.2289 20.5518 93.5167 20.7189 93.8288 20.8244C94.1409 20.9298 94.471 20.9717 94.7995 20.9474C95.2011 20.9762 95.603 20.8964 95.963 20.7164C96.3232 20.5363 96.6281 20.2627 96.8459 19.9242H96.8972V20.7769H98.4321V16.6754C98.4321 14.8079 97.0166 13.725 95.2002 13.725L95.1576 13.6994ZM94.9615 19.5404C94.4413 19.5404 93.7166 19.2761 93.7166 18.6366C93.7166 17.7839 94.6205 17.5024 95.422 17.5024C95.9285 17.4899 96.4291 17.6137 96.8715 17.8606C96.8183 18.3222 96.5999 18.7491 96.2567 19.0625C95.9137 19.3758 95.4687 19.5546 95.0041 19.566L94.9615 19.5404ZM104.026 13.9552L102.201 18.5769H102.15L100.257 13.9552H98.5513L101.391 20.4187L99.7707 24.0086H101.434L105.799 13.9552H104.026ZM89.6919 20.7769H91.2864V10.1181H89.6919V20.7769Z" fill="white"/>
<path d="M8.25016 27.7162L18.6962 16.8815L8.25891 6.06641C7.98013 6.23479 7.80762 6.62465 7.80762 7.13498V26.658C7.81134 27.1683 7.97763 27.5297 8.25016 27.7162Z" fill="white"/>
<path d="M19.0698 16.5843L22.1814 13.3566L9.51019 6.15C9.29682 6.02142 9.05445 5.9535 8.80762 5.95312L19.0687 16.583L19.0698 16.5843Z" fill="white"/>
<path d="M19.0709 17.1836L8.77734 27.8601C9.0357 27.8646 9.29018 27.7947 9.51242 27.6581L22.2087 20.4321L19.0709 17.1836Z" fill="white"/>
<path d="M26.7716 15.973L22.555 13.5703L19.3584 16.886L22.5787 20.2226L26.7703 17.8264C27.6617 17.3174 27.6617 16.4794 26.7716 15.973Z" fill="white"/>
</g>
<defs>
<clipPath id="clip0_524_1347">
<rect width="113.675" height="34.1026" fill="white"/>
</clipPath>
</defs>
</svg>
